{"title":"Barbie as Repunzel 2002 DVDRip.[Dual Audio] SDR-Release by =![am","uid":5830258,"size":748478405,"categoryP":"video","categoryS":"movies","magnet":"?xt=urn:btih:985268d207e0645dfb92fda0ee11084da087945f&amp;dn=Barbie+as+Repunzel+2002+DVDRip.%5BDual+Audio%5D+SDR-Release+by+%3D%21%5Bam&amp;tr=udp%3A%2F%2Ftracker.openbittorrent.com%3A80&amp;tr=udp%3A%2F%2Fopen.demonii.com%3A1337&amp;tr=udp%3A%2F%2Ftracker.coppersurfer.tk%3A6969&amp;tr=udp%3A%2F%2Fexodus.desync.com%3A6969","seeders":0,"leechers":0,"uploader":"amit6666","files":1,"time":1284487950,"description":"''Exclusive Barbie Dhamaka''\n\n\nBarbie as Repunzel\n\n2002\n\nDVDRip Dual Audio\n\n=![amit6688]!=- \n\nFormat                           : Matroska\nFile size                        : 714 MiB\nDuration                         : 1h 23mn\nOverall bit rate                 : 1 195 Kbps\nWidth                            : 544 pixels\nHeight                           : 288 pixels\nFrame rate                       : 25.000 fps\n\nAudio #1\nID                               : 2\nFormat                           : MPEG Audio\nFormat version                   : Version 1\nFormat profile                   : Layer 2\nCodec ID                         : A_MPEG/L2\nCodec ID/Hint                    : MP2\nDuration                         : 1h 23mn\nBit rate mode                    : Constant\nBit rate                         : 128 Kbps\nChannel(s)                       : 2 channels\nSampling rate                    : 44.1 KHz\nVideo delay                      : 181ms\nStream size                      : 76.5 MiB (11%)\nTitle                            : amit6688\nLanguage                         : Hindi\n\nAudio #2\nID                               : 3\nFormat                           : MPEG Audio\nFormat version                   : Version 1\nFormat profile                   : Layer 3\nMode                             : Dual mono\nCodec ID                         : A_MPEG/L3\nCodec ID/Hint                    : MP3\nDuration                         : 1h 23mn\nBit rate mode                    : Constant\nBit rate                         : 128 Kbps\nChannel(s)                       : 2 channels\nSampling rate                    : 44.1 KHz\nStream size                      : 76.5 MiB (11%)\nTitle                            : English\nLanguage                         : English\n\n\n &lt;a href=&quot;\nhttp://img9.imageshack.us/img9/2003/vlcsnap2010091310h51m44.png&quot; rel=&quot;nofollow&quot; target=&quot;_NEW&quot;&gt;\nhttp://img9.imageshack.us/img9/2003/vlcsnap2010091310h51m44.png&lt;/a&gt; &lt;a href=&quot;\nhttp://img40.imageshack.us/img40/1582/vlcsnap2010091310h54m56.png&quot; rel=&quot;nofollow&quot; target=&quot;_NEW&quot;&gt;\nhttp://img40.imageshack.us/img40/1582/vlcsnap2010091310h54m56.png&lt;/a&gt; &lt;a href=&quot;\nhttp://img844.imageshack.us/img844/9840/vlcsnap2010091310h56m33.png&quot; rel=&quot;nofollow&quot; target=&quot;_NEW&quot;&gt;\nhttp://img844.imageshack.us/img844/9840/vlcsnap2010091310h56m33.png&lt;/a&gt; &lt;a href=&quot;\nhttp://img24.imageshack.us/img24/6984/vlcsnap2010091310h55m16.png&quot; rel=&quot;nofollow&quot; target=&quot;_NEW&quot;&gt;\nhttp://img24.imageshack.us/img24/6984/vlcsnap2010091310h55m16.png&lt;/a&gt;\n","torrent":{"xt":"urn:btih:985268d207e0645dfb92fda0ee11084da087945f","amp;dn":"Barbie+as+Repunzel+2002+DVDRip.%5BDual+Audio%5D+SDR-Release+by+%3D%21%5Bam","amp;tr":["udp%3A%2F%2Ftracker.openbittorrent.com%3A80","udp%3A%2F%2Fopen.demonii.com%3A1337","udp%3A%2F%2Ftracker.coppersurfer.tk%3A6969","udp%3A%2F%2Fexodus.desync.com%3A6969"],"infoHash":"985268d207e0645dfb92fda0ee11084da087945f","infoHashBuffer":{"type":"Buffer","data":[152,82,104,210,7,224,100,93,251,146,253,160,238,17,8,77,160,135,148,95]},"announce":[],"urlList":[]}}